<svg style='display: none;' xmlns="http://www.w3.org/2000/svg">
    <symbol viewBox="0 0 11 20" id='facebook'>
        <path d="M8.33125 3.32083H10.1571V0.140833C9.84208 0.0975 8.75875 0 7.49708 0C4.86458 0 3.06125 1.65583 3.06125 4.69917V7.5H0.15625V11.055H3.06125V20H6.62292V11.0558H9.41042L9.85292 7.50083H6.62208V5.05167C6.62292 4.02417 6.89958 3.32083 8.33125 3.32083Z" fill="#EACC97"/>
    </symbol>
    <symbol viewBox="0 0 20 20" id='instagramm'>
        <path d="M14.5862 0H5.41381C2.42858 0 0 2.42858 0 5.41381V14.5863C0 17.5714 2.42858 20 5.41381 20H14.5863C17.5714 20 20 17.5714 20 14.5863V5.41381C20 2.42858 17.5714 0 14.5862 0V0ZM9.99998 15.4686C6.98454 15.4686 4.53139 13.0154 4.53139 9.99998C4.53139 6.98454 6.98454 4.53139 9.99998 4.53139C13.0154 4.53139 15.4686 6.98454 15.4686 9.99998C15.4686 13.0154 13.0154 15.4686 9.99998 15.4686ZM15.5993 5.82106C14.7082 5.82106 13.9834 5.09627 13.9834 4.20516C13.9834 3.31405 14.7082 2.58911 15.5993 2.58911C16.4904 2.58911 17.2154 3.31405 17.2154 4.20516C17.2154 5.09627 16.4904 5.82106 15.5993 5.82106Z" fill="#EACC97"/>
        <path d="M9.99923 5.70386C7.63046 5.70386 5.70312 7.63104 5.70312 9.99996C5.70312 12.3687 7.63046 14.2961 9.99923 14.2961C12.3682 14.2961 14.2953 12.3687 14.2953 9.99996C14.2953 7.63104 12.3682 5.70386 9.99923 5.70386Z" fill="#EACC97"/>
        <path d="M15.5997 3.76172C15.3552 3.76172 15.1562 3.96069 15.1562 4.20514C15.1562 4.44958 15.3552 4.64856 15.5997 4.64856C15.8443 4.64856 16.0432 4.44974 16.0432 4.20514C16.0432 3.96054 15.8443 3.76172 15.5997 3.76172Z" fill="#EACC97"/>
    </symbol>
    <symbol viewBox="0 0 16 20" id='marker'>
        <path d="M7.99219 0C3.79224 0 0.375 3.4563 0.375 7.65625C0.375 9.3186 0.900879 10.8978 1.90222 12.2316L7.99219 20L14.089 12.223C15.0835 10.8978 15.6094 9.3186 15.6094 7.65625C15.6094 3.4563 12.1921 0 7.99219 0ZM7.99219 11.7578C5.73083 11.7578 3.89062 9.9176 3.89062 7.65625C3.89062 5.3949 5.73083 3.55469 7.99219 3.55469C10.2535 3.55469 12.0938 5.3949 12.0938 7.65625C12.0938 9.9176 10.2535 11.7578 7.99219 11.7578Z" fill="#EACC97"/>
        <path d="M7.99219 4.72656C6.37695 4.72656 5.0625 6.04102 5.0625 7.65625C5.0625 9.27148 6.37695 10.5859 7.99219 10.5859C9.60742 10.5859 10.9219 9.27148 10.9219 7.65625C10.9219 6.04102 9.60742 4.72656 7.99219 4.72656Z" fill="#EACC97"/>
    </symbol>
    <symbol viewBox="0 0 16 16" id='phone'>
        <path d="M14.7161 10.5022C13.7365 10.5022 12.7747 10.349 11.8633 10.0478C11.4166 9.89542 10.8676 10.0352 10.595 10.3151L8.79598 11.6732C6.70961 10.5595 5.42444 9.27475 4.32595 7.20404L5.64407 5.45188C5.98653 5.10988 6.10936 4.61029 5.96219 4.14154C5.65969 3.22529 5.50603 2.26392 5.50603 1.28392C5.50607 0.575958 4.93011 0 4.2222 0H1.28387C0.575957 0 0 0.575958 0 1.28387C0 9.39846 6.60157 16 14.7161 16C15.424 16 16 15.424 16 14.7161V11.786C16 11.0781 15.424 10.5022 14.7161 10.5022Z" fill="#EACC97"/>
    </symbol>
    <symbol viewBox="0 0 20 20" id='time'>
        <path d="M17.2695 3.13107L18.4839 3.02914L18.3858 1.86069L15.0644 2.13944L15.3432 5.46086L16.5116 5.3628L16.3895 3.90789C17.9505 5.53954 18.8274 7.70322 18.8274 9.99994C18.8274 12.3578 17.9092 14.5746 16.242 16.2419C14.5747 17.9092 12.3579 18.8274 10 18.8274C7.64213 18.8274 5.42533 17.9092 3.75804 16.242C2.09074 14.5747 1.17256 12.3579 1.17256 10C1.17256 7.64213 2.09078 5.42533 3.75804 3.75804C5.4253 2.09074 7.64209 1.17256 10 1.17256V0C7.32894 0 4.81772 1.04017 2.92896 2.92896C1.04017 4.81768 0 7.3289 0 10C0 12.6711 1.04017 15.1823 2.92896 17.0711C4.81772 18.9598 7.32894 20 10 20C12.6711 20 15.1823 18.9599 17.0711 17.0711C18.9598 15.1823 20 12.6711 20 10C20 7.41348 19.0184 4.9757 17.2695 3.13107Z" fill="#EACC97"/>
        <path d="M9.41445 5.19745V3.82349C6.46036 4.10169 4.10243 6.45959 3.82422 9.41372H5.19818V10.5863H3.82422C4.10243 13.5404 6.46032 15.8983 9.41445 16.1765V14.8026H10.587V16.1765C13.5411 15.8983 15.899 13.5404 16.1772 10.5863H14.8033V9.41372H16.1772C15.899 6.45963 13.5411 4.10169 10.587 3.82349V5.19745H9.41445ZM10.587 10.2729L8.38081 12.1292L7.62588 11.232L9.41445 9.72711V6.43043H10.587V10.2729Z" fill="#EACC97"/>
    </symbol>
    <symbol viewBox="0 0 20 12" id='vk'>
        <path d="M16.5958 6.85675C16.2725 6.44841 16.365 6.26675 16.5958 5.90175C16.6 5.89758 19.2692 2.20925 19.5442 0.958415L19.5458 0.957581C19.6825 0.501748 19.5458 0.166748 18.885 0.166748H16.6983C16.1417 0.166748 15.885 0.454248 15.7475 0.775915C15.7475 0.775915 14.6342 3.44091 13.0592 5.16842C12.5508 5.66758 12.3158 5.82758 12.0383 5.82758C11.9017 5.82758 11.6892 5.66758 11.6892 5.21175V0.957581C11.6892 0.410915 11.5333 0.166748 11.0725 0.166748H7.63417C7.285 0.166748 7.0775 0.421748 7.0775 0.659248C7.0775 1.17758 7.865 1.29675 7.94667 2.75508V5.91925C7.94667 6.61258 7.82083 6.74008 7.54167 6.74008C6.79833 6.74008 4.99417 4.06425 3.925 1.00175C3.70917 0.407581 3.49833 0.167581 2.9375 0.167581H0.75C0.125833 0.167581 0 0.455081 0 0.776748C0 1.34508 0.743333 4.17091 3.45667 7.90425C5.265 10.4526 7.81167 11.8334 10.1283 11.8334C11.5208 11.8334 11.6908 11.5267 11.6908 10.9992C11.6908 8.56425 11.565 8.33425 12.2625 8.33425C12.5858 8.33425 13.1425 8.49425 14.4425 9.72342C15.9283 11.1809 16.1725 11.8334 17.0042 11.8334H19.1908C19.8142 11.8334 20.13 11.5267 19.9483 10.9217C19.5325 9.64925 16.7225 7.03175 16.5958 6.85675Z" fill="#EACC97"/>
    </symbol>
    <symbol viewBox="0 0 15 15" id='medal'>
        <path d="M5.25184 0.231562L7.77164 4.35483H6.29059L3.85424 0.368086C3.75571 0.206865 3.87175 0 4.06069 0H4.83899C5.00754 0 5.16395 0.0877148 5.25184 0.231562Z" fill="#FF646F"/>
        <path d="M5.77816 0C5.94674 0 6.10312 0.0877148 6.19104 0.231562L8.71084 4.35483H7.50114L4.83984 0H5.77816Z" fill="#FF8086"/>
        <path d="M9.74831 0.231562L7.22852 4.35483L9.15312 3.62903L11.1459 0.368086C11.2444 0.206865 11.1284 0 10.9395 0H10.1612C9.99262 0 9.8362 0.0877148 9.74831 0.231562Z" fill="#FF8086"/>
        <path d="M10.162 0H9.22366C9.05509 0 8.8987 0.0877148 8.81078 0.231562L6.29102 4.35483H8.71038L9.15394 3.62903H8.37564C8.1867 3.62903 8.07068 3.42217 8.16921 3.26095L10.162 0Z" fill="#FF646F"/>
        <path d="M9.19346 6.04838C9.05972 6.04838 8.95152 5.94004 8.95152 5.80645V4.83872C8.95152 4.70536 8.84307 4.59678 8.70959 4.59678H6.29025C6.15678 4.59678 6.04832 4.70536 6.04832 4.83872V5.80645C6.04832 5.94004 5.9401 6.04838 5.80639 6.04838C5.67265 6.04838 5.56445 5.94004 5.56445 5.80645V4.83872C5.56445 4.43849 5.89003 4.11292 6.29025 4.11292H8.70962C9.10984 4.11292 9.43542 4.43849 9.43542 4.83872V5.80645C9.43542 5.94004 9.3272 6.04838 9.19346 6.04838Z" fill="#FFAA5A"/>
        <path d="M12.3391 10.1613C12.3391 11.4048 11.87 12.5387 11.0992 13.3958C10.2135 14.3807 8.92926 14.8584 7.50039 14.8584C4.82805 14.8584 2.81641 12.8337 2.81641 10.1613C2.81641 8.73408 3.27962 7.45117 4.26256 6.56552C5.12005 5.79291 6.2553 5.32263 7.50039 5.32263C10.1727 5.3226 12.3391 7.48899 12.3391 10.1613Z" fill="#FFE077"/>
        <path d="M11.3708 10.1612C11.3708 10.4967 11.0812 10.7896 10.9985 11.0989C10.913 11.419 11.0148 11.817 10.8527 12.0972C10.6882 12.3814 10.2911 12.4912 10.0604 12.7219C9.82971 12.9526 9.71993 13.3497 9.43569 13.5141C9.15547 13.6763 8.75753 13.5744 8.43746 13.6599C8.12811 13.7426 7.83526 14.0322 7.49984 14.0322C7.16442 14.0322 6.87157 13.7426 6.56223 13.6599C6.24219 13.5744 5.84422 13.6762 5.56402 13.5141C5.27978 13.3497 5.16998 12.9526 4.93933 12.7219C4.70864 12.4912 4.31152 12.3814 4.14705 12.0972C3.98489 11.817 4.08673 11.419 4.00118 11.0989C3.91848 10.7896 3.62891 10.4967 3.62891 10.1612C3.62891 9.82583 3.91851 9.53295 4.00118 9.22357C4.08673 8.90351 3.98489 8.50554 4.14705 8.22531C4.31152 7.94107 4.70864 7.83127 4.93933 7.60059C5.17001 7.3699 5.27978 6.97281 5.56402 6.80837C5.84425 6.64624 6.24219 6.74811 6.56223 6.66256C6.87157 6.57988 7.16442 6.29028 7.49984 6.29028C7.83526 6.29028 8.12811 6.57985 8.43746 6.66256C8.7575 6.74811 9.15547 6.64627 9.43569 6.80837C9.71993 6.97281 9.82973 7.36993 10.0604 7.60059C10.2911 7.83127 10.6882 7.94107 10.8527 8.22531C11.0148 8.50554 10.913 8.90351 10.9985 9.22357C11.0812 9.53292 11.3708 9.82583 11.3708 10.1612Z" fill="#FFEAA5"/>
        <path d="M7.63325 7.74313L8.15547 9.35036H9.8454C9.98107 9.35036 10.0375 9.52397 9.92772 9.60372L8.56052 10.597L8.96151 11.8311L7.04116 10.899L5.54688 9.35036H6.84461L7.36682 7.74313C7.40881 7.61411 7.59133 7.61411 7.63325 7.74313Z" fill="#FFD05B"/>
        <path d="M7.86371 14.637C5.19137 14.637 3.02501 12.4707 3.02501 9.79834C3.02501 8.55457 3.49186 7.4226 4.26298 6.56543C3.27846 7.45116 2.66211 8.73267 2.66211 10.1612C2.66211 12.8336 4.82847 14.9999 7.50081 14.9999C8.92941 14.9999 10.2139 14.3802 11.0997 13.3957C10.2425 14.1668 9.10748 14.637 7.86371 14.637Z" fill="#FFD05B"/>
        <path d="M5.54814 9.35034H5.15594C5.02027 9.35034 4.96387 9.52395 5.07362 9.6037L6.44082 10.597L5.9186 12.2042C5.87667 12.3333 6.02436 12.4405 6.13411 12.3608L7.5013 11.3675L8.8685 12.3608C8.97825 12.4405 9.12593 12.3333 9.08401 12.2042L8.96278 11.8311L5.54814 9.35034Z" fill="#FFAA5A"/>
    </symbol>
    <symbol viewBox="0 0 18 14" id='stroller'>
        <path d="M6.62614 5.83985L9.56605 6.53528C11.7135 7.04332 13.9554 6.33162 15.4168 4.67797L17.6808 1.61175L17.0023 1.01216C16.7775 0.813495 16.4342 0.834659 16.2355 1.05948L14.1566 3.41189C13.0953 4.61283 11.4592 5.13219 9.89954 4.76326L6.95964 4.06784C6.24533 3.89888 5.50283 3.88699 4.7835 4.03307L0.435269 4.91605C0.141222 4.97575 -0.0487268 5.26252 0.0109686 5.55656L0.191144 6.44387L5.07175 5.81503C5.58204 5.71146 6.11947 5.72001 6.62614 5.83985V5.83985Z" fill="#F7F9FA"/>
        <path d="M17.8167 1.73173L17.681 1.61182L15.2424 4.3713C13.8247 5.97555 11.6497 6.66602 9.56631 6.17316L6.62641 5.47773C6.11973 5.35789 5.58227 5.34934 5.07201 5.45291L0.191406 6.4439L0.227441 6.62137C0.287137 6.91541 0.573906 7.10536 0.867953 7.04567L5.21618 6.16275C5.62723 6.07929 6.05153 6.08608 6.4597 6.18262L9.39957 6.87804C11.739 7.43144 14.1932 6.65237 15.7852 4.85097L17.8641 2.49856C18.0628 2.27374 18.0416 1.9304 17.8167 1.73173V1.73173Z" fill="#DCE6EB"/>
        <path d="M14.7409 7.69057C14.5909 7.69057 14.4693 7.56896 14.4693 7.41895V6.07359H9.32644V7.41895C9.32644 7.56896 9.20483 7.69057 9.05482 7.69057C8.90481 7.69057 8.7832 7.56896 8.7832 7.41895V3.79712C8.7832 3.04822 9.39246 2.43896 10.1414 2.43896H13.6545C14.4034 2.43896 15.0126 3.04822 15.0126 3.79712V7.41895C15.0125 7.56896 14.8909 7.69057 14.7409 7.69057ZM9.32644 5.53032H14.4693V3.79712C14.4693 3.34779 14.1037 2.98223 13.6544 2.98223H10.1413C9.69199 2.98223 9.32644 3.34779 9.32644 3.79712V5.53032Z" fill="#B9C3CD"/>
        <path d="M16.8737 12.5809H16.1898C16.0398 12.5809 15.9182 12.4593 15.9182 12.3093V10.5996H2.08311V12.0376H2.49539C2.6454 12.0376 2.76701 12.1592 2.76701 12.3092C2.76701 12.4592 2.6454 12.5809 2.49539 12.5809H1.8115C1.66148 12.5809 1.53988 12.4592 1.53988 12.3092V10.5996H1.44935C1.29934 10.5996 1.17773 10.478 1.17773 10.328C1.17773 10.178 1.29934 10.0564 1.44935 10.0564H1.53988V8.50526C1.53988 8.35525 1.66148 8.23364 1.8115 8.23364C1.96151 8.23364 2.08311 8.35525 2.08311 8.50526V10.0564H15.9181V8.50526C15.9181 8.35525 16.0397 8.23364 16.1897 8.23364C16.3397 8.23364 16.4614 8.35525 16.4614 8.50526V10.0564H16.5519C16.7019 10.0564 16.8235 10.178 16.8235 10.328C16.8235 10.478 16.7019 10.5996 16.5519 10.5996H16.4614V12.0376H16.8736C17.0236 12.0376 17.1452 12.1592 17.1452 12.3092C17.1453 12.4593 17.0237 12.5809 16.8737 12.5809V12.5809Z" fill="#B9C3CD"/>
        <path d="M17.6378 8.50508L17.2756 7.0564H0.271617C0.121605 7.0564 0 7.178 0 7.32801V8.1429L17.6378 8.50508Z" fill="#D79B8C"/>
        <path d="M17.7284 7.0564H17.2757V7.87128C17.2757 8.0213 17.1541 8.1429 17.0041 8.1429H0V8.59561C0 8.74562 0.121605 8.86722 0.271617 8.86722H17.7283C17.8784 8.86722 18 8.74562 18 8.59561V7.32801C18 7.178 17.8784 7.0564 17.7284 7.0564Z" fill="#C38778"/>
        <path d="M1.81128 12.0376C1.81128 11.9553 1.69688 11.6169 1.50451 11.5295C1.42963 11.5068 1.35031 11.4944 1.26801 11.4944C0.817977 11.4944 0.453125 11.8592 0.453125 12.3093C0.453125 12.3916 0.46557 12.4709 0.488246 12.5458C0.57677 12.7402 0.914094 12.8525 0.996359 12.8525C1.44643 12.8525 1.81128 12.4877 1.81128 12.0376V12.0376Z" fill="#5F6C75"/>
        <path d="M1.50454 11.5295C1.52722 11.6044 1.53966 11.6837 1.53966 11.766C1.53966 12.2161 1.17481 12.5809 0.724777 12.5809C0.642477 12.5809 0.563164 12.5685 0.488281 12.5458C0.589672 12.8805 0.900277 13.1242 1.26805 13.1242C1.71808 13.1242 2.08293 12.7593 2.08293 12.3093C2.08293 11.9415 1.83923 11.6309 1.50454 11.5295V11.5295Z" fill="#4E5A61"/>
        <path d="M16.1882 12.0376C16.1882 11.9553 16.0738 11.6169 15.8815 11.5295C15.8066 11.5068 15.7273 11.4944 15.645 11.4944C15.1949 11.4944 14.8301 11.8592 14.8301 12.3093C14.8301 12.3916 14.8425 12.4709 14.8652 12.5458C14.9537 12.7402 15.291 12.8525 15.3733 12.8525C15.8234 12.8525 16.1882 12.4877 16.1882 12.0376V12.0376Z" fill="#5F6C75"/>
        <path d="M15.8815 11.5295C15.9042 11.6044 15.9166 11.6837 15.9166 11.766C15.9166 12.2161 15.5518 12.5809 15.1017 12.5809C15.0194 12.5809 14.9401 12.5685 14.8652 12.5458C14.9666 12.8805 15.2772 13.1242 15.645 13.1242C16.095 13.1242 16.4599 12.7593 16.4599 12.3093C16.4599 11.9415 16.2162 11.6309 15.8815 11.5295V11.5295Z" fill="#4E5A61"/>
    </symbol>
    <symbol viewBox="0 0 18 18" id='doc'>
       <path d="M16.7833 17.0934C16.7833 17.0934 16.7079 15.8269 15.8497 14.8917C15.6147 14.7282 15.3532 14.5972 15.07 14.5073L12.6975 13.7539H5.30416L2.93171 14.5073C1.7256 14.8903 0.906285 16.01 0.90625 17.2755C0.90625 17.2755 1.61461 17.8007 15.6073 17.8007C15.9652 17.8007 16.7833 17.0934 16.7833 17.0934Z" fill="#94D8E6"/>
        <path d="M15.8496 14.8918C16.1808 15.3674 16.3709 15.9423 16.3709 16.5513V17.1488C16.3709 17.2188 16.3142 17.2756 16.2441 17.2756H0.90625V17.2757V17.7284C0.90625 17.8784 1.02786 18 1.17787 18H16.8237C16.9737 18 17.0954 17.8784 17.0954 17.7284V17.2757C17.0954 16.3073 16.6153 15.4247 15.8496 14.8918Z" fill="#7BD0E0"/>
        <path d="M11.2604 14.5794V13.8667L6.74219 12.7957V14.5794L9.00354 15.9983L11.2604 14.5794Z" fill="#EBAE9D"/>
        <path d="M6.74219 10.958V12.796C7.03216 13.0381 7.35545 13.2716 7.70245 13.5282C8.63725 14.2194 9.10159 14.3623 9.72572 14.3623C10.2306 14.3623 10.631 14.2686 11.2604 13.867V10.958H6.74219Z" fill="#E09380"/>
        <path d="M13.4332 9.21968C13.7332 9.21968 14.5197 8.79558 14.5197 7.11862C14.5197 6.28816 14.2412 5.84399 13.8977 5.84399C13.5542 5.84399 13.4332 6.21008 13.4332 6.21008H4.56893C4.56893 6.21008 4.44799 5.84399 4.10444 5.84399C3.76089 5.84399 3.48242 6.28812 3.48242 7.11862C3.48242 8.79558 4.2689 9.21968 4.56893 9.21968H13.4332Z" fill="#E09380"/>
        <path d="M13.1229 7.9625C13.1229 7.38854 13.1996 5.6591 13.1996 4.61348C7.74016 2.93301 4.56843 5.11196 4.56836 5.112V7.37733C6.55261 9.21972 11.0446 8.6909 13.1229 7.9625Z" fill="#EBAE9D"/>
        <path d="M12.709 7.6762L12.9745 8.07311L13.4334 7.37713C13.4334 6.80313 13.4334 5.93709 13.4334 5.1118L13.0712 4.54297L12.709 4.89541V7.6762Z" fill="#E09380"/>
        <path d="M7.25209 6.83425C7.10207 6.83425 6.98047 6.71265 6.98047 6.56264V5.9557C6.98047 5.80565 7.10207 5.68408 7.25209 5.68408C7.4021 5.68408 7.5237 5.80569 7.5237 5.9557V6.56264C7.52374 6.71268 7.40213 6.83425 7.25209 6.83425Z" fill="#784132"/>
        <path d="M10.7501 6.83425C10.6001 6.83425 10.4785 6.71265 10.4785 6.56264V5.9557C10.4785 5.80565 10.6001 5.68408 10.7501 5.68408C10.9001 5.68408 11.0218 5.80569 11.0218 5.9557V6.56264C11.0218 6.71268 10.9001 6.83425 10.7501 6.83425Z" fill="#784132"/>
        <path d="M9.80879 5.41977C9.73623 5.41977 9.66384 5.39087 9.61037 5.33367C9.50789 5.22409 9.51362 5.05221 9.6232 4.94973C10.2277 4.38428 11.4716 4.08661 12.3598 4.54452C12.4931 4.61328 12.5455 4.77711 12.4767 4.91039C12.408 5.04381 12.2442 5.09623 12.1108 5.02735C11.4364 4.67969 10.4541 4.91647 9.99428 5.34647C9.94189 5.39551 9.87527 5.41977 9.80879 5.41977Z" fill="#D47F6C"/>
        <path d="M8.19234 5.41993C8.12586 5.41993 8.05924 5.39568 8.00686 5.3467C7.54709 4.91671 6.56475 4.67979 5.89031 5.02759C5.75696 5.09632 5.59317 5.04397 5.52441 4.91063C5.45564 4.77731 5.50802 4.61349 5.64134 4.54475C6.52952 4.08684 7.77339 4.38455 8.37793 4.94997C8.48752 5.05241 8.49325 5.22432 8.39077 5.33391C8.33729 5.39104 8.26491 5.41993 8.19234 5.41993Z" fill="#D47F6C"/>
        <path d="M13.1229 8.12867L12.7082 7.64014C10.6299 8.36851 10.045 7.34106 9.00051 7.34106C7.84369 7.34106 7.26404 8.60167 4.56836 7.34106V8.0385C4.56836 10.3877 5.58114 11.047 6.97723 12.0792C7.91204 12.7704 8.37638 12.9133 9.00051 12.9133C9.62464 12.9133 10.5559 12.3613 11.0217 11.9147C11.8567 11.1143 13.1229 10.4779 13.1229 8.12867Z" fill="#BAE6EF"/>
        <path d="M13.4321 7.34106C13.1717 7.46344 12.9312 7.56181 12.7077 7.64014V8.03853C12.7077 10.3878 11.496 11.2788 10.6611 12.0793C10.1952 12.5259 9.62409 12.9133 9 12.9133C9.62409 12.9133 10.0884 12.7704 11.0233 12.0792C12.4194 11.047 13.4321 10.3877 13.4321 8.0385V7.34106Z" fill="#94D8E6"/>
        <path d="M13.0704 4.46048C13.0704 3.92516 13.0079 2.72127 13.0079 2.6492C13.0079 1.82215 12.3259 1.00621 11.2191 0.40609C10.5666 0.151734 9.80886 0 9.00051 0C6.55272 0 4.56836 1.39046 4.56836 2.81271V4.02532C4.56846 4.02532 8.89254 3.3519 13.0704 4.46048Z" fill="#BAE6EF"/>
        <path d="M12.7079 2.81287V4.28978L13.4323 4.02552C13.4323 3.38033 13.4323 2.89436 13.4323 2.81291C13.4323 1.86035 12.5421 0.922098 11.2188 0.40625C12.1592 1.04711 12.7079 1.98582 12.7079 2.81287Z" fill="#94D8E6"/>
        <path d="M12.7082 4.89581L13.0704 4.46068L12.7082 3.8092C8.53033 2.70061 4.56846 4.02555 4.56836 4.02555V5.11216C4.56846 5.11212 8.53033 3.78722 12.7082 4.89581Z" fill="#DCF2F6"/>
        <path d="M12.709 4.89545C12.95 4.9594 13.1917 5.03094 13.4334 5.1118C13.4334 4.72965 13.4334 4.35647 13.4334 4.02519C13.1917 3.94433 12.95 3.87275 12.709 3.80884V4.89545Z" fill="#BAE6EF"/>
        <path d="M10.3756 14.2854L9.39515 15.2194L9.42103 15.7217L9.00137 15.5945L6.37959 13.0969C6.27525 12.9975 6.11138 12.9969 6.00634 13.0956L5.30469 13.7543L8.81402 17.0974C8.91893 17.1973 9.08381 17.1973 9.18871 17.0974L9.88379 16.4352L9.78321 16.0072L10.2776 16.06L12.698 13.7543L12.1453 13.2354L10.3756 14.2854Z" fill="#7BD0E0"/>
        <path d="M11.6226 13.0969L10.375 14.2854C10.7507 14.185 11.1546 13.9673 11.7485 13.5283C11.8844 13.4278 12.0167 13.3308 12.1448 13.2354L11.9958 13.0956C11.8907 12.9969 11.7269 12.9975 11.6226 13.0969Z" fill="#70C6DB"/>
        <path d="M9.88246 16.435L9 15.5944L9.39382 15.2192L10.2762 16.0599L9.88246 16.435Z" fill="#70C6DB"/>
    </symbol>
    <symbol viewBox="0 0 14 14" id='ekg'>
        <path d="M3.14453 3.14453H13.5898V13.5898H3.14453V3.14453Z" fill="#73BCFF"/>
        <path d="M7 3.14453H13.5898V13.5898H7V3.14453Z" fill="#7984EB"/>
        <path d="M12.1948 10.5823C12.0577 10.5823 11.9297 10.6508 11.8536 10.7648L11.6473 11.0739L10.8936 9.94445C10.7312 9.70109 10.3735 9.70114 10.2112 9.94456L9.4585 11.0733L8.7065 9.9447C8.54416 9.70106 8.18614 9.70106 8.02383 9.94472L7.2721 11.0731L6.52014 9.9447C6.3578 9.70109 5.99985 9.70109 5.83751 9.9447L5.08553 11.0732L4.88018 10.765C4.80411 10.6509 4.67603 10.5823 4.53887 10.5823H3.14453V11.4026H4.3193L4.7442 12.0402C4.90654 12.2838 5.26449 12.2838 5.42683 12.0402L6.17881 10.9118L6.93082 12.0402C7.09319 12.2839 7.45114 12.2838 7.61348 12.0402L8.36519 10.9119L9.11704 12.0402C9.27935 12.2838 9.6372 12.2838 9.79959 12.0403L10.5526 10.9112L11.3062 12.0404C11.4685 12.2838 11.8261 12.2838 11.9885 12.0404L12.4141 11.4026H13.5898V10.5823H12.1948Z" fill="#FFF261"/>
        <path d="M11.8536 5.56945L11.6473 5.87855L10.8936 4.74914C10.7312 4.50578 10.3735 4.50583 10.2112 4.74925L9.4585 5.87797L8.7065 4.74938C8.54416 4.50575 8.18617 4.50575 8.02383 4.74941L7.2721 5.87775L6.52014 4.74938C6.3578 4.50578 5.99985 4.50578 5.83751 4.74938L5.08553 5.87784L4.88018 5.5697C4.80411 5.45556 4.67603 5.38699 4.53887 5.38699H3.14453V6.2073H4.3193L4.7442 6.84491C4.90654 7.08851 5.26449 7.08851 5.42683 6.84491L6.17881 5.71645L6.93082 6.84491C7.09319 7.08854 7.45114 7.08851 7.61348 6.84485L8.36519 5.71653L9.11704 6.84488C9.27932 7.08846 9.6372 7.08851 9.79959 6.84502L10.5526 5.71588L11.3062 6.84512C11.4685 7.08843 11.8261 7.08843 11.9885 6.84512L12.4141 6.2073H13.5898V5.38699H12.1948C12.0577 5.38699 11.9297 5.45546 11.8536 5.56945Z" fill="#FFF261"/>
        <path d="M7.61348 12.0402L8.36519 10.9119L9.11704 12.0402C9.27935 12.2838 9.6372 12.2839 9.79959 12.0403L10.5526 10.9112L11.3062 12.0405C11.4685 12.2838 11.8261 12.2838 11.9885 12.0405L12.4141 11.4026H13.5898V10.5823H12.1948C12.0577 10.5823 11.9297 10.6508 11.8536 10.7648L11.6473 11.0739L10.8936 9.94445C10.7312 9.70109 10.3735 9.70114 10.2112 9.94456L9.4585 11.0733L8.7065 9.94469C8.54416 9.70106 8.18614 9.70106 8.02383 9.94472L7.2721 11.0731L7 10.6648V12.1201C7.17948 12.28 7.47141 12.2534 7.61348 12.0402Z" fill="#FFF261"/>
        <path d="M7.61348 6.84486L8.36519 5.71655L9.11704 6.84489C9.27932 7.08847 9.6372 7.08852 9.79959 6.84503L10.5526 5.7159L11.3062 6.84514C11.4685 7.08844 11.8261 7.08844 11.9885 6.84514L12.4141 6.20729H13.5898V5.38698H12.1948C12.0577 5.38698 11.9297 5.45545 11.8536 5.56944L11.6473 5.87854L10.8936 4.74914C10.7312 4.50578 10.3735 4.50583 10.2112 4.74924L9.4585 5.87796L8.7065 4.74938C8.54416 4.50575 8.18617 4.50575 8.02383 4.74941L7.2721 5.87774L7 5.46948V6.92473C7.17948 7.08472 7.47141 7.05809 7.61348 6.84486Z" fill="#FFF261"/>
        <path d="M13.5898 3.14453H13.1797V7.98438H2.73438V8.80469H13.1797V13.1797H3.14453V13.5898C3.14453 13.8164 3.32817 14 3.55469 14H13.5898C13.8164 14 14 13.8164 14 13.5898V3.55469C14 3.32817 13.8164 3.14453 13.5898 3.14453Z" fill="#DDEBF0"/>
        <path d="M13.5898 3.14453H13.1797V7.98438H7V8.80469H13.1797V13.1797H7V14H13.5898C13.8164 14 14 13.8164 14 13.5898V3.55469C14 3.32817 13.8164 3.14453 13.5898 3.14453Z" fill="#A7D2D7"/>
        <path d="M0 13.5898C0 13.8164 0.183641 14 0.410156 14H3.55469V3.55469L1.72266 3.00781L0 3.55469V13.5898Z" fill="#FFF4F4"/>
        <path d="M13.5898 0H0.410156C0.183641 0 0 0.183641 0 0.410156V3.55469H14V0.410156C14 0.183641 13.8164 0 13.5898 0Z" fill="#0040A0"/>
        <path d="M14 3.55469V0.410156C14 0.183641 13.8164 0 13.5898 0H7V3.55469H14Z" fill="#00317E"/>
        <path d="M2.1875 2.1875H1.64062C1.41411 2.1875 1.23047 2.00386 1.23047 1.77734C1.23047 1.55083 1.41411 1.36719 1.64062 1.36719H2.1875C2.41402 1.36719 2.59766 1.55083 2.59766 1.77734C2.59766 2.00386 2.41402 2.1875 2.1875 2.1875Z" fill="#FF6C6C"/>
        <path d="M4.375 2.1875H3.82812C3.60161 2.1875 3.41797 2.00386 3.41797 1.77734C3.41797 1.55083 3.60161 1.36719 3.82812 1.36719H4.375C4.60152 1.36719 4.78516 1.55083 4.78516 1.77734C4.78516 2.00386 4.60152 2.1875 4.375 2.1875Z" fill="#73BCFF"/>
        <path d="M6.5625 2.1875H6.01562C5.78911 2.1875 5.60547 2.00386 5.60547 1.77734C5.60547 1.55083 5.78911 1.36719 6.01562 1.36719H6.5625C6.78902 1.36719 6.97266 1.55083 6.97266 1.77734C6.97266 2.00386 6.78902 2.1875 6.5625 2.1875Z" fill="#FFF261"/>
    </symbol>
    <symbol viewBox="0 0 15 15" id='cable'>
        <path d="M10.7686 0V11.0321C10.7686 12.1923 9.8281 13.1328 8.66798 13.1328L7.73438 14.0664L8.66798 15C10.8594 15 12.6358 13.2235 12.6358 11.0321V0L10.7686 0Z" fill="#FFC40F"/>
        <path d="M2.36525 0H0.498047V3.47856L1.43165 4.41217L2.36525 3.47856V0Z" fill="#46C7C2"/>
        <path d="M6.56651 11.0321V5.41187L6.90844 4.30561C6.99123 4.03772 7.03333 3.75894 7.03333 3.47856V0H4.23249V3.47856C4.23249 3.75894 4.27459 4.03775 4.35738 4.30561L4.69931 5.41187V7.27907C3.41027 7.27907 2.36528 6.23408 2.36528 4.94505V3.47853H0.498047V4.94505C0.498047 7.26533 2.37899 9.14628 4.69928 9.14628V11.0321C4.69928 13.2235 6.47575 14.9999 8.66713 15V13.1328C7.507 13.1328 6.56651 12.1923 6.56651 11.0321Z" fill="#FFD959"/>
        <path d="M12.6349 2.02661H10.7675C9.67975 2.41113 8.90039 3.44856 8.90039 4.66805C8.90039 5.88753 9.67975 6.92496 10.7675 7.30948H12.6349C13.7227 6.92496 14.502 5.88753 14.502 4.66805C14.502 3.44856 13.7227 2.41113 12.6349 2.02661Z" fill="#FFF7E0"/>
        <path d="M10.7676 7.30923C11.0596 7.41247 11.3738 7.46881 11.7012 7.46881C12.0286 7.46881 12.3428 7.41244 12.6348 7.30923V2.02677C12.3428 1.92353 12.0286 1.86719 11.7012 1.86719C11.3738 1.86719 11.0596 1.92355 10.7676 2.02677V7.30923Z" fill="#FFEAA6"/>
    </symbol>
</svg>